<svg id="visual" viewBox="0 0 900 300" width="900" height="300" xmlns="http://www.w3.org/2000/svg" xmlns:xlink="http://www.w3.org/1999/xlink" version="1.1"><rect x="0" y="0" width="900" height="300" fill="#fff"></rect><path d="M0 246L21.5 246.2C43 246.3 86 246.7 128.8 239.7C171.7 232.7 214.3 218.3 257.2 216.5C300 214.7 343 225.3 385.8 233.7C428.7 242 471.3 248 514.2 246.5C557 245 600 236 642.8 232C685.7 228 728.3 229 771.2 227C814 225 857 220 878.5 217.5L900 215L900 0L878.5 0C857 0 814 0 771.2 0C728.3 0 685.7 0 642.8 0C600 0 557 0 514.2 0C471.3 0 428.7 0 385.8 0C343 0 300 0 257.2 0C214.3 0 171.7 0 128.8 0C86 0 43 0 21.5 0L0 0Z" fill="#2999cd"></path><path d="M0 179L21.5 176C43 173 86 167 128.8 168.3C171.7 169.7 214.3 178.3 257.2 175.3C300 172.3 343 157.7 385.8 152.8C428.7 148 471.3 153 514.2 161C557 169 600 180 642.8 182.3C685.7 184.7 728.3 178.3 771.2 178.2C814 178 857 184 878.5 187L900 190L900 0L878.5 0C857 0 814 0 771.2 0C728.3 0 685.7 0 642.8 0C600 0 557 0 514.2 0C471.3 0 428.7 0 385.8 0C343 0 300 0 257.2 0C214.3 0 171.7 0 128.8 0C86 0 43 0 21.5 0L0 0Z" fill="#1682bc"></path><path d="M0 131L21.5 124C43 117 86 103 128.8 98.8C171.7 94.7 214.3 100.3 257.2 102C300 103.7 343 101.3 385.8 103.7C428.7 106 471.3 113 514.2 118C557 123 600 126 642.8 122.2C685.7 118.3 728.3 107.7 771.2 101C814 94.3 857 91.7 878.5 90.3L900 89L900 0L878.5 0C857 0 814 0 771.2 0C728.3 0 685.7 0 642.8 0C600 0 557 0 514.2 0C471.3 0 428.7 0 385.8 0C343 0 300 0 257.2 0C214.3 0 171.7 0 128.8 0C86 0 43 0 21.5 0L0 0Z" fill="#0c6aa9"></path><path d="M0 87L21.5 78.2C43 69.3 86 51.7 128.8 49.2C171.7 46.7 214.3 59.3 257.2 64.2C300 69 343 66 385.8 59.3C428.7 52.7 471.3 42.3 514.2 38.8C557 35.3 600 38.7 642.8 41.7C685.7 44.7 728.3 47.3 771.2 48.8C814 50.3 857 50.7 878.5 50.8L900 51L900 0L878.5 0C857 0 814 0 771.2 0C728.3 0 685.7 0 642.8 0C600 0 557 0 514.2 0C471.3 0 428.7 0 385.8 0C343 0 300 0 257.2 0C214.3 0 171.7 0 128.8 0C86 0 43 0 21.5 0L0 0Z" fill="#0f5395"></path></svg>