<svg id="visual" viewBox="0 0 900 300" width="900" height="300" xmlns="http://www.w3.org/2000/svg" xmlns:xlink="http://www.w3.org/1999/xlink" version="1.1"><path d="M0 67L13.7 65.5C27.3 64 54.7 61 82 55C109.3 49 136.7 40 163.8 34C191 28 218 25 245.2 24.5C272.3 24 299.7 26 327 26C354.3 26 381.7 24 409 24.5C436.3 25 463.7 28 491 35C518.3 42 545.7 53 573 55.5C600.3 58 627.7 52 654.8 45C682 38 709 30 736.2 32C763.3 34 790.7 46 818 46.5C845.3 47 872.7 36 886.3 30.5L900 25L900 0L886.3 0C872.7 0 845.3 0 818 0C790.7 0 763.3 0 736.2 0C709 0 682 0 654.8 0C627.7 0 600.3 0 573 0C545.7 0 518.3 0 491 0C463.7 0 436.3 0 409 0C381.7 0 354.3 0 327 0C299.7 0 272.3 0 245.2 0C218 0 191 0 163.8 0C136.7 0 109.3 0 82 0C54.7 0 27.3 0 13.7 0L0 0Z" fill="#0f5395"></path><path d="M0 124L13.7 135C27.3 146 54.7 168 82 161.5C109.3 155 136.7 120 163.8 110C191 100 218 115 245.2 117C272.3 119 299.7 108 327 109C354.3 110 381.7 123 409 119.5C436.3 116 463.7 96 491 97C518.3 98 545.7 120 573 129C600.3 138 627.7 134 654.8 124.5C682 115 709 100 736.2 99C763.3 98 790.7 111 818 114.5C845.3 118 872.7 112 886.3 109L900 106L900 23L886.3 28.5C872.7 34 845.3 45 818 44.5C790.7 44 763.3 32 736.2 30C709 28 682 36 654.8 43C627.7 50 600.3 56 573 53.5C545.7 51 518.3 40 491 33C463.7 26 436.3 23 409 22.5C381.7 22 354.3 24 327 24C299.7 24 272.3 22 245.2 22.5C218 23 191 26 163.8 32C136.7 38 109.3 47 82 53C54.7 59 27.3 62 13.7 63.5L0 65Z" fill="#147fba"></path><path d="M0 163L13.7 172C27.3 181 54.7 199 82 196C109.3 193 136.7 169 163.8 161.5C191 154 218 163 245.2 166C272.3 169 299.7 166 327 172C354.3 178 381.7 193 409 189C436.3 185 463.7 162 491 158.5C518.3 155 545.7 171 573 176.5C600.3 182 627.7 177 654.8 171.5C682 166 709 160 736.2 162.5C763.3 165 790.7 176 818 182C845.3 188 872.7 189 886.3 189.5L900 190L900 104L886.3 107C872.7 110 845.3 116 818 112.5C790.7 109 763.3 96 736.2 97C709 98 682 113 654.8 122.5C627.7 132 600.3 136 573 127C545.7 118 518.3 96 491 95C463.7 94 436.3 114 409 117.5C381.7 121 354.3 108 327 107C299.7 106 272.3 117 245.2 115C218 113 191 98 163.8 108C136.7 118 109.3 153 82 159.5C54.7 166 27.3 144 13.7 133L0 122Z" fill="#2999cd"></path><path d="M0 187L13.7 198C27.3 209 54.7 231 82 231.5C109.3 232 136.7 211 163.8 204.5C191 198 218 206 245.2 208.5C272.3 211 299.7 208 327 214C354.3 220 381.7 235 409 232C436.3 229 463.7 208 491 203C518.3 198 545.7 209 573 213.5C600.3 218 627.7 216 654.8 209C682 202 709 190 736.2 191.5C763.3 193 790.7 208 818 215C845.3 222 872.7 221 886.3 220.5L900 220L900 188L886.3 187.5C872.7 187 845.3 186 818 180C790.7 174 763.3 163 736.2 160.5C709 158 682 164 654.8 169.5C627.7 175 600.3 180 573 174.5C545.7 169 518.3 153 491 156.5C463.7 160 436.3 183 409 187C381.7 191 354.3 176 327 170C299.7 164 272.3 167 245.2 164C218 161 191 152 163.8 159.5C136.7 167 109.3 191 82 194C54.7 197 27.3 179 13.7 170L0 161Z" fill="#147fba"></path><path d="M0 301L13.7 301C27.3 301 54.7 301 82 301C109.3 301 136.7 301 163.8 301C191 301 218 301 245.2 301C272.3 301 299.7 301 327 301C354.3 301 381.7 301 409 301C436.3 301 463.7 301 491 301C518.3 301 545.7 301 573 301C600.3 301 627.7 301 654.8 301C682 301 709 301 736.2 301C763.3 301 790.7 301 818 301C845.3 301 872.7 301 886.3 301L900 301L900 218L886.3 218.5C872.7 219 845.3 220 818 213C790.7 206 763.3 191 736.2 189.5C709 188 682 200 654.8 207C627.7 214 600.3 216 573 211.5C545.7 207 518.3 196 491 201C463.7 206 436.3 227 409 230C381.7 233 354.3 218 327 212C299.7 206 272.3 209 245.2 206.5C218 204 191 196 163.8 202.5C136.7 209 109.3 230 82 229.5C54.7 229 27.3 207 13.7 196L0 185Z" fill="#0f5395"></path></svg>